Coordinates
version=1
nRows=13
nColumns=38
inDegrees=no

Units are S.I. units (second, meters, Newtons, ...)
If the header above contains a line with 'inDegrees', this indicates whether rotational values are in degrees (yes) or radians (no).

endheader
time	pelvis_tilt	pelvis_list	pelvis_rotation	pelvis_tx	pelvis_ty	pelvis_tz	hip_flexion_r	hip_adduction_r	hip_rotation_r	knee_angle_r	ankle_angle_r	subtalar_angle_r	mtp_angle_r	hip_flexion_l	hip_adduction_l	hip_rotation_l	knee_angle_l	ankle_angle_l	subtalar_angle_l	mtp_angle_l	lumbar_extension	lumbar_bending	lumbar_rotation	arm_flex_r	arm_add_r	arm_rot_r	elbow_flex_r	pro_sup_r	wrist_flex_r	wrist_dev_r	arm_flex_l	arm_add_l	arm_rot_l	elbow_flex_l	pro_sup_l	wrist_flex_l	wrist_dev_l
0.05	-0.109965	-0.0568899	0.0290812	0.923525	1.08568	-0.625993	1.06209	-0.0580195	-0.266502	-1.65471	0.378507	0.1	8.4727e-06	-0.129989	-0.107738	-0.387552	-0.543329	0.377877	0.1	-8.60161e-06	-0.189978	0.0785966	-0.336995	-0.878394	-0.29732	-0.26747	1.79852	2.17017	-0.0278763	-0.0186735	-0.0199147	-0.398112	0.0187449	2.23414	1.94917	0.0197158	-0.0137003
0.058333	-0.116589	-0.0623263	0.019746	0.927422	1.08966	-0.626509	1.05306	-0.0470446	-0.273389	-1.52323	0.384834	0.1	8.4727e-06	-0.192946	-0.104464	-0.435109	-0.459499	0.217233	0.1	-8.60161e-06	-0.170537	0.0886894	-0.338977	-0.91508	-0.290005	-0.285003	1.81565	2.16418	-0.0278763	-0.0186735	-0.0361379	-0.380124	0.027983	2.26121	1.92588	0.0197158	-0.0137003
0.066667	-0.12362	-0.0640327	0.0113974	0.930925	1.09295	-0.626808	1.04193	-0.0389412	-0.281324	-1.39287	0.394422	0.1	8.4727e-06	-0.245833	-0.0986526	-0.469276	-0.395728	0.0871016	0.1	-8.60161e-06	-0.151883	0.0945079	-0.340968	-0.946051	-0.28271	-0.301631	1.83026	2.15949	-0.0278763	-0.0186735	-0.0524709	-0.364417	0.0371981	2.28447	1.9028	0.0197158	-0.0137003
0.075	-0.13101	-0.0620922	0.00404421	0.934006	1.09553	-0.627019	1.02875	-0.0336655	-0.290364	-1.26388	0.407169	0.1	8.4727e-06	-0.288696	-0.0903972	-0.490111	-0.352051	-0.0125551	0.1	-8.60161e-06	-0.134064	0.0961393	-0.342939	-0.971288	-0.275455	-0.317322	1.84232	2.15604	-0.0278763	-0.0186735	-0.0688972	-0.350969	0.0463904	2.3039	1.88003	0.0197158	-0.0137003
0.083333	-0.138613	-0.0567868	-0.00230793	0.936649	1.09739	-0.627238	1.0136	-0.031046	-0.300658	-1.13707	0.422697	0.1	8.4727e-06	-0.321675	-0.0799916	-0.497882	-0.328545	-0.0821118	0.1	-8.60161e-06	-0.117241	0.0938806	-0.344784	-0.99074	-0.26831	-0.331983	1.8518	2.1537	-0.0278763	-0.0186735	-0.0853611	-0.339709	0.0555572	2.31937	1.8579	0.0197158	-0.0137003
0.091667	-0.146151	-0.0486488	-0.00768785	0.938858	1.09856	-0.627528	0.996647	-0.0307243	-0.312441	-1.01397	0.440219	0.1	8.4727e-06	-0.345074	-0.0679785	-0.493227	-0.32522	-0.122901	0.1	-8.60161e-06	-0.101745	0.0883482	-0.34628	-1.00434	-0.261429	-0.345448	1.85865	2.15218	-0.0278763	-0.0186735	-0.101755	-0.330484	0.0646866	2.33072	1.83703	0.0197158	-0.0137003
0.1	-0.153193	-0.038544	-0.0122015	0.940658	1.0991	-0.627921	0.978116	-0.0321253	-0.325915	-0.896881	0.45842	0.1	8.4727e-06	-0.35939	-0.0551222	-0.47744	-0.341887	-0.137842	0.1	-8.60161e-06	-0.0880923	0.0804732	-0.347064	-1.01201	-0.255064	-0.357509	1.86286	2.1511	-0.0278763	-0.0186735	-0.117922	-0.323048	0.0737467	2.33774	1.81824	0.0197158	-0.0137003
0.108333	-0.159198	-0.0275742	-0.0160605	0.942077	1.09904	-0.628416	0.958246	-0.03448	-0.341119	-0.788606	0.475497	0.1	8.4727e-06	-0.365333	-0.0423452	-0.4526	-0.378018	-0.131691	0.1	-8.60161e-06	-0.0769492	0.0714519	-0.346648	-1.01376	-0.249564	-0.367953	1.86451	2.1501	-0.0278763	-0.0186735	-0.133684	-0.317071	0.0826761	2.34027	1.80241	0.0197158	-0.0137003
0.116667	-0.163576	-0.0169521	-0.0195782	0.943139	1.09847	-0.628982	0.937246	-0.0369263	-0.357855	-0.692136	0.489415	0.1	8.4727e-06	-0.363821	-0.0306068	-0.421382	-0.432608	-0.110667	0.1	-8.60161e-06	-0.0690499	0.0626097	-0.344468	-1.00967	-0.245342	-0.376632	1.86386	2.14891	-0.0278763	-0.0186735	-0.148875	-0.312176	0.0913779	2.33827	1.79026	0.0197158	-0.0137003
0.125	-0.165782	-0.0078586	-0.0231417	0.943859	1.09743	-0.629562	0.91526	-0.0385825	-0.375581	-0.610192	0.498218	0.1	8.4727e-06	-0.355935	-0.020822	-0.386888	-0.504126	-0.0815716	0.1	-8.60161e-06	-0.0650732	0.0552327	-0.339947	-1.00001	-0.242831	-0.383502	1.86134	2.14748	-0.0278763	-0.0186735	-0.163389	-0.30798	0.0997183	2.33185	1.7822	0.0197158	-0.0137003
0.133333	-0.165413	-0.00131127	-0.0271713	0.944246	1.09597	-0.630085	0.892361	-0.0385968	-0.393323	-0.544807	0.500332	0.1	8.4727e-06	-0.342863	-0.0138092	-0.352405	-0.590533	-0.0507366	0.1	-8.60161e-06	-0.0655196	0.050402	-0.332568	-0.985183	-0.242434	-0.388648	1.85755	2.14593	-0.0278763	-0.0186735	-0.177212	-0.304154	0.107532	2.3213	1.77818	0.0197158	-0.0137003
0.141667	-0.162285	0.00194976	-0.032073	0.9443	1.09411	-0.630476	0.868598	-0.0362238	-0.409771	-0.497104	0.49484	0.1	8.4727e-06	-0.325807	-0.010214	-0.320917	-0.689333	-0.0231505	0.1	-8.60161e-06	-0.0706156	0.0488567	-0.321929	-0.96577	-0.24448	-0.392246	1.85319	2.14455	-0.0278763	-0.0186735	-0.190427	-0.300462	0.114634	2.30703	1.77768	0.0197158	-0.0137003
0.15	-0.156473	0.00153022	-0.0381959	0.944019	1.09186	-0.630673	0.844091	-0.0308939	-0.423452	-0.467278	0.481667	0.1	8.4727e-06	-0.305873	-0.0104828	-0.294791	-0.797728	-0.00192044	0.1	-8.60161e-06	-0.0802667	0.0509163	-0.307781	-0.942401	-0.2492	-0.394499	1.84898	2.14373	-0.0278763	-0.0186735	-0.203194	-0.296792	0.120851	2.28954	1.77981	0.0197158	-0.0137003
